<svg xmlns="http://www.w3.org/2000/svg" viewBox="0 0 55.562 55.563"><g transform="translate(-105.335 -106.36)"><path fill="#fdc700" d="M105.335 106.36h55.563v55.563h-55.563z" style="stroke-width:.264583"/><rect width="1.852" height="9.525" x="74.547" y="159.261" fill="#0a0a0a" rx=".529" style="stroke-width:.264583" transform="rotate(-15)"/><rect width="1.852" height="15.875" x="78.251" y="156.086" fill="#0a0a0a" rx=".529" style="stroke-width:.264583" transform="rotate(-15)"/><path fill="#0a0a0a" d="M132.49 121.372c2.671-.716 5.031-.413 7.08.908 2.068 1.286 3.508 3.442 4.319 6.468l3.572 13.33-6.952 1.863-3.32-12.39c-.409-1.526-1.122-2.606-2.139-3.24-1.017-.633-2.193-.77-3.529-.412-1.336.357-2.285 1.065-2.85 2.122-.564 1.057-.641 2.348-.232 3.875l3.32 12.39-6.993 1.874-6.113-22.818 6.992-1.873.81 3.026c.44-1.199 1.181-2.245 2.228-3.139 1.038-.921 2.307-1.582 3.807-1.984z" style="stroke-width:.264583"/><rect width="1.852" height="15.875" x="107.62" y="156.086" fill="#0a0a0a" rx=".529" style="stroke-width:.264583" transform="rotate(-15)"/><rect width="1.852" height="9.525" x="111.324" y="159.261" fill="#0a0a0a" rx=".529" style="stroke-width:.264583" transform="rotate(-15)"/></g></svg>
