<svg xmlns="http://www.w3.org/2000/svg" viewBox="0 0 55.563 55.563"><g transform="translate(-77.024 -120.647)"><path d="M77.024 120.647h55.563v55.563H77.024z" style="stroke-width:.264583"/><rect width="1.852" height="9.525" x="43.504" y="165.734" fill="#fdc700" rx=".529" style="stroke-width:.264583" transform="rotate(-15)"/><rect width="1.852" height="15.875" x="47.208" y="162.559" fill="#fdc700" rx=".529" style="stroke-width:.264583" transform="rotate(-15)"/><path fill="#fdc700" d="M104.18 135.66c2.67-.717 5.03-.414 7.08.907 2.068 1.287 3.508 3.443 4.318 6.469l3.572 13.33-6.951 1.863-3.32-12.39c-.41-1.527-1.122-2.607-2.139-3.24-1.017-.633-2.193-.77-3.53-.413-1.335.358-2.285 1.065-2.849 2.122-.564 1.057-.642 2.349-.233 3.876l3.32 12.39-6.992 1.873-6.114-22.817 6.992-1.874.811 3.026c.439-1.198 1.181-2.245 2.227-3.138 1.039-.922 2.308-1.583 3.807-1.985z" style="stroke-width:.264583"/><rect width="1.852" height="15.875" x="76.577" y="162.559" fill="#fdc700" rx=".529" style="stroke-width:.264583" transform="rotate(-15)"/><rect width="1.852" height="9.525" x="80.281" y="165.734" fill="#fdc700" rx=".529" style="stroke-width:.264583" transform="rotate(-15)"/></g></svg>
