<svg xmlns="http://www.w3.org/2000/svg" viewBox="0 0 55.5625 55.5625"><g transform="translate(-77.024239,-120.64742)"><rect width="55.5625" height="55.5625" fill="#000000" x="77.024239" y="120.64742" style="stroke-width:0.264583"/><rect x="43.503578" y="165.73415" width="1.8520833" height="9.5249996" rx="0.52916664" transform="rotate(-15)" fill="#fdc700" style="stroke-width:0.264583"/><rect x="47.207767" y="162.55922" width="1.8520833" height="15.875" rx="0.52916664" transform="rotate(-15)" fill="#fdc700" style="stroke-width:0.264583"/><path d="m 104.17916,135.65931 c 2.6715,-0.71583 5.03158,-0.41325 7.08025,0.90778 2.06851,1.28644 3.50837,3.44263 4.31906,6.46856 l 3.57187,13.33045 -6.9514,1.86267 -3.31999,-12.38999 c -0.40904,-1.52659 -1.1221,-2.60651 -2.13889,-3.23977 -1.01706,-0.63325 -2.19339,-0.77091 -3.52925,-0.41299 -1.33578,0.35791 -2.28571,1.06532 -2.84983,2.12223 -0.564115,1.0569 -0.641638,2.34865 -0.23259,3.87535 l 3.31986,12.38991 -6.992332,1.87351 -6.113833,-22.81711 6.992355,-1.87357 0.81079,3.02591 c 0.438494,-1.19856 1.180782,-2.24478 2.22687,-3.13865 1.03875,-0.92112 2.30782,-1.58255 3.80706,-1.98429 z" fill="#fdc700" style="stroke-width:0.264583"/><rect x="76.576553" y="162.5592" width="1.8520833" height="15.875" rx="0.52916664" transform="rotate(-15)" fill="#fdc700" style="stroke-width:0.264583"/><rect x="80.280785" y="165.73419" width="1.8520833" height="9.5249996" rx="0.52916664" transform="rotate(-15)" fill="#fdc700" style="stroke-width:0.264583"/></g></svg>
