<svg xmlns="http://www.w3.org/2000/svg" viewBox="0 0 55.562499 55.5625"><g transform="translate(-105.33466,-106.35992)"><rect width="55.5625" height="55.5625" fill="#fdc700" x="105.33466" y="106.35992" style="stroke-width:0.264583"/><rect x="74.547218" y="159.26074" width="1.8520833" height="9.5249996" rx="0.52916664" transform="rotate(-15)" fill="#0a0a0a" style="stroke-width:0.264583"/><rect x="78.251404" y="156.08583" width="1.8520833" height="15.875" rx="0.52916664" transform="rotate(-15)" fill="#0a0a0a" style="stroke-width:0.264583"/><path d="m 132.48957,121.37181 c 2.6715,-0.71583 5.03159,-0.41325 7.08025,0.90778 2.06852,1.28644 3.50838,3.44263 4.31906,6.46856 l 3.57188,13.33045 -6.9514,1.86267 -3.31999,-12.38999 c -0.40905,-1.52659 -1.1221,-2.60651 -2.13889,-3.23977 -1.01706,-0.63325 -2.1934,-0.77091 -3.52925,-0.41299 -1.33578,0.35791 -2.28571,1.06532 -2.84983,2.12223 -0.56412,1.0569 -0.64164,2.34865 -0.2326,3.87535 l 3.31986,12.38991 -6.99233,1.87351 -6.11383,-22.81711 6.99236,-1.87357 0.81079,3.02591 c 0.43849,-1.19856 1.18078,-2.24478 2.22686,-3.13865 1.03876,-0.92112 2.30783,-1.58255 3.80706,-1.98429 z" fill="#0a0a0a" style="stroke-width:0.264583"/><rect x="107.62019" y="156.08582" width="1.8520833" height="15.875" rx="0.52916664" transform="rotate(-15)" fill="#0a0a0a" style="stroke-width:0.264583"/><rect x="111.32442" y="159.2608" width="1.8520833" height="9.5249996" rx="0.52916664" transform="rotate(-15)" fill="#0a0a0a" style="stroke-width:0.264583"/></g></svg>
