<svg xmlns="http://www.w3.org/2000/svg" viewBox="0 0 139.466 36.521"><g transform="translate(-30.681 -117.223)"><rect width="1.852" height="9.525" x="-5.559" y="138.831" fill="#0a0a0a" rx=".529" style="stroke-width:.264583" transform="rotate(-15)"/><rect width="1.852" height="15.875" x="-1.855" y="135.656" fill="#0a0a0a" rx=".529" style="stroke-width:.264583" transform="rotate(-15)"/><path fill="#fdc700" stroke="#0a0a0a" stroke-width="6" d="M36.309 125.295c-.427-1.595.502-3.208 2.043-3.62l13.29-3.562c1.54-.413 3.151.52 3.579 2.115l6.818 25.443c.427 1.596-.502 3.209-2.043 3.622l-13.29 3.56c-1.541.413-3.152-.519-3.58-2.114z" style="stroke-width:1.5875;stroke-dasharray:none"/><rect width="6.35" height="1.587" x="9.39" y="129.836" fill="#0a0a0a" rx=".794" style="stroke-width:.264583" transform="rotate(-15)"/><path fill="#0a0a0a" d="M49.358 131.847c1.068-.286 2.012-.165 2.832.363.827.515 1.403 1.377 1.727 2.587l1.429 5.333-2.78.745-1.329-4.956c-.163-.611-.448-1.043-.855-1.296-.407-.254-.878-.309-1.412-.165-.534.143-.914.426-1.14.848-.225.423-.256.94-.093 1.55l1.328 4.957-2.797.749-2.445-9.127 2.797-.75.324 1.211c.175-.48.472-.898.89-1.255a3.697 3.697 0 0 1 1.524-.794z" style="stroke-width:.264583"/><rect width="1.852" height="15.875" x="24.868" y="135.656" fill="#0a0a0a" rx=".529" style="stroke-width:.264583" transform="rotate(-15)"/><rect width="1.852" height="9.525" x="28.572" y="138.831" fill="#0a0a0a" rx=".529" style="stroke-width:.264583" transform="rotate(-15)"/><path fill="#0a0a0a" d="M84.185 130.996c1.397 0 2.526.444 3.387 1.333.86.875 1.291 2.103 1.291 3.683v6.88H85.9v-6.477c0-.932-.233-1.644-.699-2.138-.465-.508-1.1-.762-1.905-.762-.818 0-1.467.254-1.947.762-.466.494-.698 1.206-.698 2.138v6.477h-2.964v-11.727h2.964v1.46a4.016 4.016 0 0 1 1.502-1.185 4.655 4.655 0 0 1 2.032-.444zm17.931.17v11.726h-2.984v-1.482c-.381.508-.882.91-1.503 1.206a4.658 4.658 0 0 1-1.99.424c-.917 0-1.728-.19-2.434-.572a4.256 4.256 0 0 1-1.672-1.714c-.395-.762-.593-1.665-.593-2.71v-6.879h2.964v6.456c0 .931.232 1.651.698 2.16.466.493 1.1.74 1.905.74.819 0 1.46-.247 1.926-.74.466-.509.699-1.229.699-2.16v-6.456zm1.527 5.82c0-1.185.233-2.237.699-3.154.48-.917 1.129-1.623 1.947-2.116.818-.494 1.729-.741 2.73-.741.763 0 1.49.17 2.18.508.692.324 1.242.762 1.652 1.312v-5.567h3.005v15.664h-3.005v-1.736c-.367.579-.882 1.044-1.545 1.397-.664.353-1.433.53-2.308.53a5.037 5.037 0 0 1-2.709-.763c-.818-.508-1.468-1.22-1.947-2.138-.466-.931-.699-1.996-.699-3.196zm9.229.042c0-.72-.141-1.333-.423-1.841a2.897 2.897 0 0 0-1.143-1.185 2.996 2.996 0 0 0-1.546-.424c-.55 0-1.058.134-1.524.402-.465.269-.846.664-1.143 1.186-.282.508-.423 1.115-.423 1.82 0 .706.141 1.327.423 1.863a3.25 3.25 0 0 0 1.143 1.206c.48.282.988.424 1.524.424.55 0 1.066-.134 1.546-.403a3.08 3.08 0 0 0 1.143-1.185c.282-.522.423-1.143.423-1.863zm9.837-6.053c.875 0 1.644.176 2.307.529.663.339 1.185.783 1.566 1.333v-1.672h2.985v11.811c0 1.087-.219 2.053-.656 2.9-.438.861-1.094 1.538-1.969 2.032-.875.508-1.933.762-3.175.762-1.665 0-3.034-.388-4.106-1.164-1.059-.776-1.658-1.835-1.8-3.175h2.943c.155.536.487.96.995 1.27.522.324 1.15.487 1.883.487.861 0 1.56-.261 2.096-.783.536-.508.804-1.285.804-2.329v-1.82c-.38.55-.91 1.009-1.587 1.376-.664.367-1.426.55-2.286.55a5.036 5.036 0 0 1-2.71-.762c-.818-.508-1.467-1.22-1.947-2.138-.466-.931-.698-1.997-.698-3.196 0-1.185.232-2.237.698-3.154.48-.917 1.122-1.623 1.926-2.116.819-.494 1.729-.741 2.73-.741zm3.873 6.053c0-.72-.141-1.333-.423-1.841a2.897 2.897 0 0 0-1.143-1.185 2.997 2.997 0 0 0-1.545-.424c-.55 0-1.059.134-1.524.402-.466.269-.847.664-1.143 1.186-.283.508-.424 1.115-.424 1.82 0 .706.141 1.327.424 1.863a3.25 3.25 0 0 0 1.143 1.206c.48.282.987.424 1.524.424.55 0 1.065-.134 1.545-.403a3.08 3.08 0 0 0 1.143-1.185c.282-.522.423-1.143.423-1.863zm9.837-6.053c.875 0 1.644.176 2.307.529.663.339 1.185.783 1.566 1.333v-1.672h2.985v11.811c0 1.087-.219 2.053-.656 2.9-.438.861-1.094 1.538-1.969 2.032-.874.508-1.933.762-3.175.762-1.665 0-3.033-.388-4.106-1.164-1.058-.776-1.658-1.835-1.8-3.175h2.943c.155.536.487.96.995 1.27.522.324 1.15.487 1.884.487.86 0 1.56-.261 2.095-.783.536-.508.804-1.285.804-2.329v-1.82c-.38.55-.91 1.009-1.587 1.376-.663.367-1.425.55-2.286.55-.988 0-1.89-.254-2.71-.762-.818-.508-1.467-1.22-1.947-2.138-.465-.931-.698-1.997-.698-3.196 0-1.185.233-2.237.698-3.154.48-.917 1.122-1.623 1.926-2.116.82-.494 1.73-.741 2.731-.741zm3.873 6.053c0-.72-.14-1.333-.423-1.841a2.894 2.894 0 0 0-1.143-1.185 2.996 2.996 0 0 0-1.545-.424c-.55 0-1.058.134-1.524.402-.466.269-.847.664-1.143 1.186-.282.508-.423 1.115-.423 1.82 0 .706.14 1.327.423 1.863a3.25 3.25 0 0 0 1.143 1.206c.48.282.988.424 1.524.424.55 0 1.065-.134 1.545-.403.48-.282.861-.677 1.143-1.185.282-.522.423-1.143.423-1.863zm9.837-6.053c.875 0 1.644.176 2.308.529.663.339 1.185.783 1.566 1.333v-1.672h2.984v11.811c0 1.087-.218 2.053-.656 2.9-.437.861-1.093 1.538-1.968 2.032-.875.508-1.934.762-3.175.762-1.665 0-3.034-.388-4.107-1.164-1.058-.776-1.658-1.835-1.799-3.175h2.942c.156.536.487.96.995 1.27.522.324 1.15.487 1.884.487.86 0 1.56-.261 2.096-.783.536-.508.804-1.285.804-2.329v-1.82c-.381.55-.91 1.009-1.588 1.376-.663.367-1.425.55-2.286.55a5.037 5.037 0 0 1-2.709-.762c-.818-.508-1.468-1.22-1.947-2.138-.466-.931-.699-1.997-.699-3.196 0-1.185.233-2.237.699-3.154.48-.917 1.122-1.623 1.926-2.116.818-.494 1.728-.741 2.73-.741zm3.874 6.053c0-.72-.141-1.333-.423-1.841a2.897 2.897 0 0 0-1.143-1.185 2.996 2.996 0 0 0-1.546-.424c-.55 0-1.058.134-1.524.402-.465.269-.846.664-1.143 1.186-.282.508-.423 1.115-.423 1.82 0 .706.141 1.327.423 1.863a3.25 3.25 0 0 0 1.143 1.206c.48.282.988.424 1.524.424.55 0 1.066-.134 1.546-.403a3.08 3.08 0 0 0 1.143-1.185c.282-.522.423-1.143.423-1.863zm16.145-.254c0 .424-.029.805-.085 1.143h-8.573c.07.847.367 1.51.89 1.99.521.48 1.164.72 1.926.72 1.1 0 1.883-.473 2.349-1.418h3.196c-.338 1.128-.988 2.06-1.947 2.794-.96.72-2.138 1.079-3.535 1.079-1.129 0-2.145-.247-3.048-.74a5.452 5.452 0 0 1-2.095-2.139c-.494-.917-.741-1.975-.741-3.175 0-1.213.247-2.279.74-3.196a5.17 5.17 0 0 1 2.075-2.116c.889-.494 1.912-.741 3.069-.741 1.115 0 2.11.24 2.985.72a4.964 4.964 0 0 1 2.053 2.053c.494.874.74 1.883.74 3.026zm-3.07-.846c-.014-.762-.289-1.37-.825-1.82-.536-.466-1.193-.7-1.969-.7-.733 0-1.354.227-1.862.678-.494.438-.797 1.052-.91 1.842z" style="stroke-width:.264583"/></g></svg>
