<svg xmlns="http://www.w3.org/2000/svg" viewBox="0 0 138.955 36.419"><g transform="translate(-35.414 -130.261)"><rect width="1.852" height="9.525" x="-4.331" y="152.535" fill="#fdc700" rx=".529" style="stroke-width:.264583" transform="rotate(-15)"/><rect width="1.852" height="15.875" x="-.627" y="149.36" fill="#fdc700" rx=".529" style="stroke-width:.264583" transform="rotate(-15)"/><path fill="#fdc700" stroke="#fdc700" stroke-width="8" d="M41.298 138.146c-.398-1.483.443-2.919 1.766-3.273L56.02 131.4c1.323-.354 2.769.469 3.166 1.952l6.818 25.443c.397 1.483-.444 2.919-1.767 3.273l-12.957 3.472c-1.323.355-2.769-.469-3.166-1.952z" style="stroke-width:2.11667;stroke-dasharray:none"/><rect width="6.35" height="1.587" x="10.353" y="142.481" fill="#0a0a0a" rx=".794" style="stroke-width:.264583" transform="rotate(-15)"/><path fill="#0a0a0a" d="M53.835 144.835c1.068-.287 2.013-.166 2.832.363.827.514 1.403 1.377 1.728 2.587l1.428 5.332-2.78.745-1.328-4.956c-.164-.61-.45-1.042-.856-1.296-.407-.253-.877-.308-1.412-.165-.534.143-.914.426-1.14.85-.225.422-.256.939-.092 1.55l1.327 4.955-2.796.75-2.446-9.127 2.797-.75.324 1.21c.176-.479.473-.897.891-1.255a3.697 3.697 0 0 1 1.523-.793z" style="stroke-width:.264583"/><rect width="1.852" height="15.875" x="25.567" y="149.36" fill="#fdc700" rx=".529" style="stroke-width:.264583" transform="rotate(-15)"/><rect width="1.852" height="9.525" x="29.271" y="152.535" fill="#fdc700" rx=".529" style="stroke-width:.264583" transform="rotate(-15)"/><path fill="#f5f5f5" d="M88.407 143.984c1.397 0 2.526.444 3.387 1.333.86.875 1.291 2.103 1.291 3.683v6.88h-2.963v-6.478c0-.931-.233-1.644-.699-2.137-.465-.508-1.1-.762-1.905-.762-.818 0-1.467.254-1.947.762-.466.493-.698 1.206-.698 2.137v6.477h-2.964v-11.726h2.964v1.46a4.016 4.016 0 0 1 1.502-1.185 4.655 4.655 0 0 1 2.032-.444zm17.931.169v11.726h-2.984v-1.481c-.381.508-.882.91-1.503 1.206a4.658 4.658 0 0 1-1.99.423c-.917 0-1.728-.19-2.434-.571a4.256 4.256 0 0 1-1.672-1.714c-.395-.762-.593-1.666-.593-2.71v-6.879h2.963v6.456c0 .931.233 1.65.699 2.159.466.494 1.1.74 1.905.74.819 0 1.46-.246 1.926-.74.466-.508.699-1.228.699-2.16v-6.455zm1.527 5.82c0-1.184.233-2.236.699-3.153.48-.917 1.129-1.623 1.947-2.117.818-.494 1.728-.74 2.73-.74.762 0 1.49.169 2.18.508.692.324 1.242.762 1.652 1.312v-5.567h3.005v15.663h-3.005v-1.735c-.367.578-.882 1.044-1.546 1.397-.663.353-1.432.529-2.307.529a5.037 5.037 0 0 1-2.71-.762c-.817-.508-1.467-1.22-1.946-2.138-.466-.931-.699-1.997-.699-3.196zm9.229.043c0-.72-.141-1.333-.424-1.841a2.897 2.897 0 0 0-1.143-1.186 2.996 2.996 0 0 0-1.545-.423c-.55 0-1.058.134-1.524.402-.465.268-.846.663-1.143 1.186-.282.508-.423 1.114-.423 1.82 0 .705.14 1.326.423 1.863a3.25 3.25 0 0 0 1.143 1.206c.48.282.988.423 1.524.423.55 0 1.066-.134 1.545-.402a3.08 3.08 0 0 0 1.143-1.185c.283-.522.424-1.143.424-1.863zm9.837-6.053c.874 0 1.644.176 2.307.529.663.338 1.185.783 1.566 1.333v-1.672h2.985v11.81c0 1.088-.22 2.054-.656 2.9-.438.862-1.094 1.539-1.969 2.033-.875.508-1.933.762-3.175.762-1.665 0-3.034-.388-4.106-1.164-1.059-.776-1.658-1.835-1.8-3.175h2.943c.155.536.487.96.995 1.27.522.324 1.15.486 1.883.486.861 0 1.56-.26 2.096-.783.536-.508.804-1.284.804-2.328v-1.82c-.38.55-.91 1.009-1.587 1.375-.664.367-1.426.55-2.286.55a5.036 5.036 0 0 1-2.71-.761c-.818-.508-1.467-1.22-1.947-2.138-.466-.931-.698-1.997-.698-3.196 0-1.185.232-2.237.698-3.154.48-.917 1.122-1.623 1.926-2.117.819-.494 1.729-.74 2.73-.74zm3.873 6.053c0-.72-.141-1.333-.423-1.841a2.897 2.897 0 0 0-1.143-1.186 2.997 2.997 0 0 0-1.545-.423c-.55 0-1.059.134-1.524.402-.466.268-.847.663-1.143 1.186-.283.508-.424 1.114-.424 1.82 0 .705.141 1.326.424 1.863a3.25 3.25 0 0 0 1.143 1.206c.48.282.987.423 1.524.423.55 0 1.065-.134 1.545-.402a3.08 3.08 0 0 0 1.143-1.185c.282-.522.423-1.143.423-1.863zm9.837-6.053c.875 0 1.644.176 2.307.529.663.338 1.185.783 1.566 1.333v-1.672h2.985v11.81c0 1.088-.219 2.054-.656 2.9-.438.862-1.094 1.539-1.969 2.033-.875.508-1.933.762-3.175.762-1.665 0-3.034-.388-4.106-1.164-1.058-.776-1.658-1.835-1.8-3.175h2.943c.155.536.487.96.995 1.27.522.324 1.15.486 1.884.486.86 0 1.559-.26 2.095-.783.536-.508.804-1.284.804-2.328v-1.82c-.38.55-.91 1.009-1.587 1.375-.663.367-1.425.55-2.286.55-.988 0-1.89-.253-2.71-.761-.818-.508-1.467-1.22-1.947-2.138-.465-.931-.698-1.997-.698-3.196 0-1.185.233-2.237.698-3.154.48-.917 1.122-1.623 1.926-2.117.819-.494 1.73-.74 2.73-.74zm3.873 6.053c0-.72-.14-1.333-.423-1.841a2.894 2.894 0 0 0-1.143-1.186 2.996 2.996 0 0 0-1.545-.423c-.55 0-1.058.134-1.524.402-.466.268-.847.663-1.143 1.186-.282.508-.423 1.114-.423 1.82 0 .705.14 1.326.423 1.863a3.25 3.25 0 0 0 1.143 1.206c.48.282.988.423 1.524.423.55 0 1.065-.134 1.545-.402.48-.282.861-.677 1.143-1.185.282-.522.423-1.143.423-1.863zm9.837-6.053c.875 0 1.644.176 2.307.529.664.338 1.186.783 1.567 1.333v-1.672h2.984v11.81c0 1.088-.219 2.054-.656 2.9-.437.862-1.093 1.539-1.968 2.033-.875.508-1.934.762-3.175.762-1.665 0-3.034-.388-4.107-1.164-1.058-.776-1.658-1.835-1.799-3.175h2.942c.156.536.487.96.995 1.27.522.324 1.15.486 1.884.486.86 0 1.56-.26 2.095-.783.537-.508.805-1.284.805-2.328v-1.82c-.381.55-.91 1.009-1.588 1.375-.663.367-1.425.55-2.286.55a5.036 5.036 0 0 1-2.709-.761c-.818-.508-1.468-1.22-1.947-2.138-.466-.931-.699-1.997-.699-3.196 0-1.185.233-2.237.699-3.154.48-.917 1.121-1.623 1.926-2.117.818-.494 1.728-.74 2.73-.74zm3.874 6.053c0-.72-.141-1.333-.424-1.841a2.897 2.897 0 0 0-1.143-1.186 2.996 2.996 0 0 0-1.545-.423c-.55 0-1.058.134-1.524.402-.465.268-.846.663-1.143 1.186-.282.508-.423 1.114-.423 1.82 0 .705.141 1.326.423 1.863a3.25 3.25 0 0 0 1.143 1.206c.48.282.988.423 1.524.423.55 0 1.066-.134 1.545-.402a3.08 3.08 0 0 0 1.143-1.185c.283-.522.424-1.143.424-1.863zm16.144-.254c0 .424-.028.805-.084 1.143h-8.573c.07.847.367 1.51.89 1.99.521.48 1.163.72 1.925.72 1.101 0 1.884-.473 2.35-1.419h3.196c-.339 1.13-.988 2.06-1.947 2.794-.96.72-2.138 1.08-3.535 1.08-1.13 0-2.145-.247-3.048-.741a5.452 5.452 0 0 1-2.096-2.138c-.494-.917-.74-1.975-.74-3.175 0-1.213.246-2.279.74-3.196a5.17 5.17 0 0 1 2.075-2.117c.889-.494 1.912-.74 3.069-.74 1.115 0 2.11.24 2.984.72a4.964 4.964 0 0 1 2.054 2.052c.494.875.74 1.884.74 3.027zm-3.069-.846c-.014-.762-.289-1.37-.825-1.82-.537-.466-1.193-.7-1.969-.7-.733 0-1.354.226-1.862.678-.494.437-.798 1.051-.91 1.842z" style="stroke-width:.264583"/></g></svg>
