<svg xmlns="http://www.w3.org/2000/svg" viewBox="0 0 138.95523 36.419195"><g transform="translate(-35.414178,-130.26145)"><rect x="-4.3311338" y="152.53543" width="1.8520833" height="9.5249996" rx="0.52916664" transform="rotate(-15)" fill="#fdc700" style="stroke-width:0.264583" /><rect x="-0.62699944" y="149.36043" width="1.8520833" height="15.875" rx="0.52916664" transform="rotate(-15)" fill="#fdc700" style="stroke-width:0.264583" /><path d="m 41.297543,138.14621 c -0.397325,-1.48281 0.443309,-2.91883 1.766225,-3.27329 L 56.021049,131.401 c 1.322917,-0.35446 2.768838,0.46887 3.166242,1.95167 l 6.817519,25.4431 c 0.397404,1.48299 -0.443442,2.91889 -1.766358,3.27343 l -12.957175,3.47186 c -1.322917,0.35454 -2.768918,-0.46884 -3.166243,-1.95157 z" fill="#fdc700" stroke="#fdc700" stroke-width="8" style="stroke-width:2.11667;stroke-dasharray:none" /><rect x="10.352999" y="142.48129" width="6.3499999" height="1.5875" rx="0.79374999" transform="rotate(-15)" fill="#0a0a0a" style="stroke-width:0.264583" /><path d="m 53.83485,144.83458 c 1.068625,-0.28633 2.012659,-0.16528 2.832073,0.36312 0.827432,0.51459 1.403297,1.37705 1.727624,2.58741 l 1.428803,5.33218 -2.780639,0.74506 -1.327944,-4.95599 c -0.163618,-0.61063 -0.448839,-1.04259 -0.855636,-1.2959 -0.406797,-0.25329 -0.877332,-0.30837 -1.411658,-0.16518 -0.534299,0.14317 -0.914267,0.42611 -1.13993,0.84889 -0.225637,0.42275 -0.256646,0.93946 -0.09303,1.55009 l 1.327944,4.95604 -2.796937,0.7493 -2.445517,-9.12678 2.796937,-0.74943 0.324299,1.21036 c 0.175419,-0.47942 0.472334,-0.89789 0.890747,-1.25544 0.415501,-0.36846 0.923131,-0.63302 1.522862,-0.79373 z" fill="#0a0a0a" style="stroke-width:0.264583" /><rect x="25.566738" y="149.36041" width="1.8520833" height="15.875" rx="0.52916664" transform="rotate(-15)" fill="#fdc700" style="stroke-width:0.264583" /><rect x="29.27096" y="152.53542" width="1.8520833" height="9.5249996" rx="0.52916664" transform="rotate(-15)" fill="#fdc700" style="stroke-width:0.264583" /><path d="m 88.407345,143.98371 c 1.397,0 2.525713,0.4445 3.386667,1.3335 0.86069,0.8749 1.291167,2.10256 1.291167,3.683 v 6.87906 h -2.963334 v -6.47689 c 0,-0.93134 -0.232833,-1.64394 -0.6985,-2.13784 -0.465666,-0.508 -1.100666,-0.762 -1.905,-0.762 -0.81862,0 -1.467643,0.254 -1.947333,0.762 -0.465667,0.4939 -0.6985,1.2065 -0.6985,2.13784 v 6.47689 h -2.963333 v -11.72623 h 2.963333 v 1.4605 c 0.395023,-0.508 0.895879,-0.9031 1.502833,-1.18533 0.620713,-0.29633 1.298046,-0.4445 2.032,-0.4445 z m 17.930815,0.16933 v 11.72623 h -2.9845 v -1.48167 c -0.381,0.508 -0.88186,0.91017 -1.50283,1.2065 -0.60669,0.28231 -1.27,0.42334 -1.989672,0.42334 -0.917046,0 -1.728523,-0.1905 -2.434167,-0.5715 -0.705379,-0.39503 -1.262856,-0.96653 -1.672166,-1.7144 -0.395023,-0.762 -0.592667,-1.6651 -0.592667,-2.70933 v -6.87917 h 2.963333 v 6.45584 c 0,0.93133 0.232834,1.651 0.6985,2.159 0.465667,0.49389 1.100667,0.74083 1.904999,0.74083 0.81862,0 1.4605,-0.24694 1.92617,-0.74083 0.46567,-0.508 0.6985,-1.22767 0.6985,-2.159 v -6.45584 z m 1.52691,5.82084 c 0,-1.18534 0.23283,-2.23661 0.6985,-3.15384 0.47969,-0.91723 1.12898,-1.62277 1.94733,-2.11666 0.81836,-0.4939 1.72853,-0.74084 2.7305,-0.74084 0.762,0 1.48881,0.16934 2.18017,0.508 0.69136,0.32457 1.24169,0.762 1.651,1.31234 v -5.56684 h 3.00567 v 15.66323 h -3.00567 v -1.73567 c -0.36698,0.57865 -0.88186,1.04431 -1.54517,1.397 -0.66331,0.35296 -1.43219,0.52917 -2.30716,0.52917 -0.98769,0 -1.89098,-0.254 -2.70934,-0.762 -0.81835,-0.508 -1.46764,-1.22052 -1.94733,-2.13773 -0.46567,-0.93133 -0.6985,-1.99673 -0.6985,-3.19616 z m 9.22867,0.0423 c 0,-0.71967 -0.14103,-1.3335 -0.42334,-1.8415 -0.28231,-0.52211 -0.66331,-0.91723 -1.143,-1.18534 -0.47969,-0.28223 -0.99483,-0.42333 -1.54516,-0.42333 -0.55034,0 -1.05834,0.13406 -1.524,0.40217 -0.46567,0.2681 -0.84667,0.66323 -1.143,1.18533 -0.28231,0.508 -0.42334,1.11477 -0.42334,1.82033 0,0.70557 0.14103,1.32644 0.42334,1.86267 0.29633,0.5221 0.67733,0.92427 1.143,1.2065 0.47969,0.28223 0.98769,0.42333 1.524,0.42333 0.55033,0 1.06547,-0.13406 1.54516,-0.40216 0.47969,-0.28223 0.86069,-0.67734 1.143,-1.18534 0.28231,-0.5221 0.42334,-1.143 0.42334,-1.86266 z m 9.83694,-6.05367 c 0.87471,0 1.64386,0.1764 2.30717,0.52917 0.66304,0.33866 1.18533,0.78316 1.56633,1.3335 v -1.67217 h 2.9845 v 11.81089 c 0,1.08665 -0.21881,2.05317 -0.65617,2.89984 -0.43762,0.86095 -1.09379,1.53829 -1.9685,2.032 -0.87497,0.508 -1.93331,0.762 -3.175,0.762 -1.66528,0 -3.03397,-0.38788 -4.10633,-1.16417 -1.05833,-0.77602 -1.65814,-1.83436 -1.79917,-3.175 h 2.94217 c 0.15505,0.53631 0.48683,0.95964 0.99483,1.27 0.52203,0.32464 1.14988,0.48683 1.88384,0.48683 0.86069,0 1.55919,-0.26087 2.0955,-0.78316 0.53604,-0.508 0.80433,-1.28403 0.80433,-2.32834 v -1.82033 c -0.381,0.55033 -0.91017,1.00912 -1.5875,1.37583 -0.66331,0.36698 -1.42531,0.55034 -2.286,0.55034 -0.98795,0 -1.89098,-0.254 -2.70933,-0.762 -0.81862,-0.508 -1.46765,-1.22053 -1.94734,-2.13773 -0.46566,-0.93133 -0.6985,-1.99673 -0.6985,-3.19617 0,-1.18533 0.23284,-2.2366 0.6985,-3.15383 0.47969,-0.91723 1.12184,-1.62277 1.92617,-2.11667 0.81836,-0.49389 1.72852,-0.74083 2.7305,-0.74083 z m 3.8735,6.05367 c 0,-0.71967 -0.14129,-1.3335 -0.42333,-1.8415 -0.28231,-0.52211 -0.66331,-0.91723 -1.143,-1.18534 -0.47996,-0.28223 -0.99484,-0.42333 -1.54517,-0.42333 -0.55033,0 -1.05833,0.13406 -1.524,0.40217 -0.46567,0.2681 -0.84667,0.66323 -1.143,1.18533 -0.28231,0.508 -0.42333,1.11477 -0.42333,1.82033 0,0.70557 0.14102,1.32644 0.42333,1.86267 0.29633,0.5221 0.67733,0.92427 1.143,1.2065 0.47969,0.28223 0.98769,0.42333 1.524,0.42333 0.55033,0 1.06521,-0.13406 1.54517,-0.40216 0.47969,-0.28223 0.86069,-0.67734 1.143,-1.18534 0.28204,-0.5221 0.42333,-1.143 0.42333,-1.86266 z m 9.83667,-6.05367 c 0.87498,0 1.64413,0.1764 2.30717,0.52917 0.66331,0.33866 1.18533,0.78316 1.56633,1.3335 v -1.67217 h 2.9845 v 11.81089 c 0,1.08665 -0.21854,2.05317 -0.65616,2.89984 -0.43736,0.86095 -1.09352,1.53829 -1.9685,2.032 -0.87471,0.508 -1.93305,0.762 -3.175,0.762 -1.66502,0 -3.03371,-0.38788 -4.10634,-1.16417 -1.05833,-0.77602 -1.65787,-1.83436 -1.79916,-3.175 h 2.94216 c 0.15532,0.53631 0.48684,0.95964 0.99484,1.27 0.52229,0.32464 1.15014,0.48683 1.88383,0.48683 0.86096,0 1.55946,-0.26087 2.0955,-0.78316 0.53631,-0.508 0.80433,-1.28403 0.80433,-2.32834 v -1.82033 c -0.381,0.55033 -0.91016,1.00912 -1.5875,1.37583 -0.66304,0.36698 -1.42504,0.55034 -2.286,0.55034 -0.98768,0 -1.89071,-0.254 -2.70933,-0.762 -0.81835,-0.508 -1.46738,-1.22053 -1.94733,-2.13773 -0.46567,-0.93133 -0.6985,-1.99673 -0.6985,-3.19617 0,-1.18533 0.23283,-2.2366 0.6985,-3.15383 0.47995,-0.91723 1.12183,-1.62277 1.92616,-2.11667 0.81863,-0.49389 1.72879,-0.74083 2.7305,-0.74083 z m 3.8735,6.05367 c 0,-0.71967 -0.14102,-1.3335 -0.42333,-1.8415 -0.28204,-0.52211 -0.66304,-0.91723 -1.143,-1.18534 -0.47969,-0.28223 -0.99483,-0.42333 -1.54517,-0.42333 -0.55033,0 -1.05833,0.13406 -1.524,0.40217 -0.46566,0.2681 -0.84666,0.66323 -1.143,1.18533 -0.28204,0.508 -0.42333,1.11477 -0.42333,1.82033 0,0.70557 0.14129,1.32644 0.42333,1.86267 0.29634,0.5221 0.67734,0.92427 1.143,1.2065 0.47996,0.28223 0.98796,0.42333 1.524,0.42333 0.55034,0 1.06548,-0.13406 1.54517,-0.40216 0.47996,-0.28223 0.86096,-0.67734 1.143,-1.18534 0.28231,-0.5221 0.42333,-1.143 0.42333,-1.86266 z m 9.83695,-6.05367 c 0.87498,0 1.64385,0.1764 2.30717,0.52917 0.66331,0.33866 1.18533,0.78316 1.56633,1.3335 v -1.67217 h 2.9845 v 11.81089 c 0,1.08665 -0.21881,2.05317 -0.65617,2.89984 -0.43735,0.86095 -1.09352,1.53829 -1.9685,2.032 -0.87498,0.508 -1.93331,0.762 -3.175,0.762 -1.66502,0 -3.03398,-0.38788 -4.10633,-1.16417 -1.05833,-0.77602 -1.65815,-1.83436 -1.79917,-3.175 h 2.94217 c 0.15531,0.53631 0.48683,0.95964 0.99483,1.27 0.52202,0.32464 1.15015,0.48683 1.88384,0.48683 0.86068,0 1.55918,-0.26087 2.0955,-0.78316 0.53631,-0.508 0.80433,-1.28403 0.80433,-2.32834 v -1.82033 c -0.381,0.55033 -0.91017,1.00912 -1.5875,1.37583 -0.66331,0.36698 -1.42531,0.55034 -2.286,0.55034 -0.98769,0 -1.89098,-0.254 -2.70933,-0.762 -0.81836,-0.508 -1.46765,-1.22053 -1.94734,-2.13773 -0.46566,-0.93133 -0.6985,-1.99673 -0.6985,-3.19617 0,-1.18533 0.23284,-2.2366 0.6985,-3.15383 0.47969,-0.91723 1.12184,-1.62277 1.92617,-2.11667 0.81835,-0.49389 1.72852,-0.74083 2.7305,-0.74083 z m 3.8735,6.05367 c 0,-0.71967 -0.14102,-1.3335 -0.42333,-1.8415 -0.28232,-0.52211 -0.66332,-0.91723 -1.143,-1.18534 -0.47969,-0.28223 -0.99484,-0.42333 -1.54517,-0.42333 -0.55033,0 -1.05833,0.13406 -1.524,0.40217 -0.46567,0.2681 -0.84667,0.66323 -1.143,1.18533 -0.28231,0.508 -0.42333,1.11477 -0.42333,1.82033 0,0.70557 0.14102,1.32644 0.42333,1.86267 0.29633,0.5221 0.67733,0.92427 1.143,1.2065 0.47969,0.28223 0.98769,0.42333 1.524,0.42333 0.55033,0 1.06548,-0.13406 1.54517,-0.40216 0.47968,-0.28223 0.86068,-0.67734 1.143,-1.18534 0.28231,-0.5221 0.42333,-1.143 0.42333,-1.86266 z m 16.14461,-0.254 c 0,0.42333 -0.0283,0.80433 -0.0847,1.143 h -8.5725 c 0.0707,0.84666 0.36698,1.50989 0.889,1.98966 0.52203,0.47977 1.16417,0.71967 1.92617,0.71967 1.10067,0 1.88383,-0.47273 2.3495,-1.41817 h 3.19617 c -0.33867,1.1289 -0.98769,2.06021 -1.94734,2.7939 -0.95964,0.71966 -2.13783,1.0795 -3.53483,1.0795 -1.12898,0 -2.14498,-0.24686 -3.048,-0.74084 -0.889,-0.508 -1.5875,-1.22052 -2.0955,-2.13772 -0.49398,-0.91723 -0.74083,-1.97557 -0.74083,-3.175 0,-1.21357 0.24685,-2.27894 0.74083,-3.19617 0.49398,-0.91723 1.18533,-1.62277 2.07433,-2.11667 0.889,-0.49389 1.91215,-0.74083 3.06917,-0.74083 1.11469,0 2.10952,0.2399 2.9845,0.71967 0.889,0.47977 1.57348,1.16416 2.05317,2.05316 0.49397,0.8749 0.74083,1.88384 0.74083,3.02684 z m -3.06917,-0.84667 c -0.014,-0.762 -0.28919,-1.36877 -0.8255,-1.82033 -0.53631,-0.46567 -1.19247,-0.6985 -1.9685,-0.6985 -0.73369,0 -1.35466,0.22577 -1.86266,0.67733 -0.49398,0.43744 -0.79719,1.05127 -0.91017,1.8415 z" fill="#f5f5f5" style="stroke-width:0.264583" /></g></svg>
