<svg xmlns="http://www.w3.org/2000/svg" viewBox="0 0 139.46631 36.521076"><g transform="translate(-30.681236,-117.22276)"><rect x="-5.5590572" y="138.83142" width="1.8520833" height="9.5249996" rx="0.52916664" transform="rotate(-15)" fill="#0a0a0a" style="stroke-width:0.264583" /><rect x="-1.8549253" y="135.65642" width="1.8520833" height="15.875" rx="0.52916664" transform="rotate(-15)" fill="#0a0a0a" style="stroke-width:0.264583" /><path d="m 36.30904,125.29543 c -0.42749,-1.59538 0.50146,-3.20831 2.04274,-3.6213 l 13.28954,-3.56092 c 1.54125,-0.41298 3.15211,0.51935 3.57968,2.11477 l 6.81752,25.44328 c 0.42757,1.59544 -0.50139,3.20834 -2.04285,3.62135 l -13.28944,3.56076 c -1.54125,0.41302 -3.15224,-0.51937 -3.57973,-2.11481 z" fill="#fdc700" stroke="#0a0a0a" stroke-width="6" style="stroke-width:1.5875;stroke-dasharray:none" /><rect x="9.3897495" y="129.83559" width="6.3499999" height="1.5875" rx="0.79374999" transform="rotate(-15)" fill="#0a0a0a" style="stroke-width:0.264583" /><path d="m 49.35757,131.84686 c 1.06863,-0.28633 2.01263,-0.16528 2.83207,0.36312 0.82744,0.51458 1.4033,1.37705 1.72749,2.58743 l 1.42875,5.33215 -2.78045,0.74507 -1.32794,-4.95596 c -0.16362,-0.61066 -0.44884,-1.04262 -0.85564,-1.29591 -0.4068,-0.25331 -0.87736,-0.30837 -1.41166,-0.1652 -0.5343,0.14316 -0.91426,0.42614 -1.13993,0.84889 -0.22563,0.42275 -0.25664,0.93945 -0.093,1.55011 l 1.32795,4.95602 -2.79694,0.7493 -2.44554,-9.12675 2.79693,-0.74946 0.32433,1.21039 c 0.17539,-0.47943 0.47231,-0.89792 0.89075,-1.25548 0.4155,-0.36843 0.92313,-0.63301 1.52286,-0.79372 z" fill="#0a0a0a" style="stroke-width:0.264583" /><rect x="24.867899" y="135.65642" width="1.8520833" height="15.875" rx="0.52916664" transform="rotate(-15)" fill="#0a0a0a" style="stroke-width:0.264583" /><rect x="28.572138" y="138.83141" width="1.8520833" height="9.5249996" rx="0.52916664" transform="rotate(-15)" fill="#0a0a0a" style="stroke-width:0.264583" /><path d="m 84.18547,130.99593 c 1.397,0 2.52571,0.4445 3.38666,1.3335 0.86069,0.87488 1.29117,2.10254 1.29117,3.683 v 6.87912 h -2.96333 v -6.47695 c 0,-0.93133 -0.23284,-1.64396 -0.6985,-2.13783 -0.46567,-0.508 -1.10067,-0.762 -1.905,-0.762 -0.81862,0 -1.46765,0.254 -1.94734,0.762 -0.46566,0.49387 -0.6985,1.2065 -0.6985,2.13783 v 6.47695 H 77.6873 v -11.72628 h 2.96333 v 1.4605 c 0.39503,-0.508 0.89588,-0.90313 1.50284,-1.18534 0.62071,-0.29633 1.29804,-0.4445 2.032,-0.4445 z m 17.93081,0.16934 v 11.72628 h -2.9845 v -1.48167 c -0.381,0.508 -0.88186,0.91017 -1.50283,1.2065 -0.60669,0.28231 -1.27,0.42333 -1.98967,0.42333 -0.91705,0 -1.72852,-0.1905 -2.43417,-0.5715 -0.70538,-0.39502 -1.26285,-0.96652 -1.67216,-1.71444 -0.39503,-0.762 -0.59267,-1.66513 -0.59267,-2.70934 v -6.87916 h 2.96333 v 6.45583 c 0,0.93133 0.23284,1.651 0.6985,2.159 0.46567,0.49387 1.10067,0.74083 1.905,0.74083 0.81862,0 1.4605,-0.24696 1.92617,-0.74083 0.46567,-0.508 0.6985,-1.22767 0.6985,-2.159 v -6.45583 z m 1.52691,5.82083 c 0,-1.18533 0.23283,-2.23663 0.6985,-3.15383 0.47969,-0.91723 1.12898,-1.6228 1.94733,-2.11667 0.81836,-0.4939 1.72853,-0.74083 2.7305,-0.74083 0.762,0 1.48881,0.16933 2.18017,0.508 0.69136,0.32454 1.24169,0.762 1.651,1.31233 v -5.56683 h 3.00567 v 15.66328 h -3.00567 v -1.73567 c -0.36698,0.57864 -0.88186,1.04431 -1.54517,1.397 -0.66331,0.35296 -1.43219,0.52917 -2.30716,0.52917 -0.98769,0 -1.89098,-0.254 -2.70934,-0.762 -0.81835,-0.508 -1.46764,-1.22053 -1.94733,-2.13778 -0.46567,-0.93134 -0.6985,-1.99673 -0.6985,-3.19617 z m 9.22867,0.0423 c 0,-0.71966 -0.14103,-1.3335 -0.42334,-1.8415 -0.28231,-0.52213 -0.66331,-0.91723 -1.143,-1.18533 -0.47969,-0.28223 -0.99483,-0.42333 -1.54516,-0.42333 -0.55034,0 -1.05834,0.13403 -1.524,0.40216 -0.46567,0.2681 -0.84667,0.66321 -1.143,1.18534 -0.28231,0.508 -0.42334,1.11476 -0.42334,1.82033 0,0.70554 0.14103,1.32643 0.42334,1.86267 0.29633,0.5221 0.67733,0.92426 1.143,1.2065 0.47969,0.2822 0.98769,0.42333 1.524,0.42333 0.55033,0 1.06547,-0.13407 1.54516,-0.40217 0.47969,-0.28223 0.86069,-0.67733 1.143,-1.18533 0.28231,-0.52213 0.42334,-1.143 0.42334,-1.86267 z m 9.83694,-6.05366 c 0.87471,0 1.64386,0.17637 2.30717,0.52916 0.66304,0.33867 1.18533,0.78317 1.56633,1.3335 v -1.67216 h 2.9845 v 11.81094 c 0,1.08665 -0.21881,2.05317 -0.65616,2.89983 -0.43763,0.86096 -1.09379,1.53829 -1.96851,2.032 -0.87497,0.508 -1.93331,0.762 -3.175,0.762 -1.66528,0 -3.03397,-0.38787 -4.10633,-1.16416 -1.05833,-0.77602 -1.65814,-1.83436 -1.79917,-3.175 h 2.94217 c 0.15505,0.53631 0.48683,0.95964 0.99483,1.27 0.52203,0.32464 1.14988,0.48683 1.88384,0.48683 0.86069,0 1.55919,-0.26088 2.0955,-0.78317 0.53604,-0.508 0.80433,-1.28402 0.80433,-2.32833 v -1.82033 c -0.381,0.55033 -0.91017,1.00912 -1.5875,1.37583 -0.66331,0.36698 -1.42531,0.55033 -2.286,0.55033 -0.98795,0 -1.89098,-0.254 -2.70933,-0.762 -0.81862,-0.508 -1.46765,-1.22052 -1.94734,-2.13778 -0.46566,-0.93133 -0.6985,-1.99673 -0.6985,-3.19616 0,-1.18534 0.23284,-2.23663 0.6985,-3.15384 0.47969,-0.91723 1.12184,-1.62279 1.92617,-2.11666 0.81836,-0.4939 1.72852,-0.74083 2.7305,-0.74083 z m 3.8735,6.05366 c 0,-0.71966 -0.14129,-1.3335 -0.42333,-1.8415 -0.28231,-0.52213 -0.66331,-0.91723 -1.143,-1.18533 -0.47996,-0.28223 -0.99484,-0.42333 -1.54517,-0.42333 -0.55033,0 -1.05833,0.13403 -1.524,0.40216 -0.46567,0.2681 -0.84667,0.66321 -1.143,1.18534 -0.28231,0.50799 -0.42333,1.11476 -0.42333,1.82033 0,0.70554 0.14102,1.32643 0.42333,1.86267 0.29633,0.5221 0.67733,0.92426 1.143,1.2065 0.47969,0.2822 0.98769,0.42333 1.524,0.42333 0.55033,0 1.06521,-0.13407 1.54517,-0.40217 0.47969,-0.28223 0.86069,-0.67733 1.143,-1.18533 0.28204,-0.52213 0.42333,-1.143 0.42333,-1.86267 z m 9.83668,-6.05366 c 0.87498,0 1.64412,0.17637 2.30717,0.52916 0.66331,0.33867 1.18533,0.78317 1.56633,1.3335 v -1.67216 h 2.9845 v 11.81094 c 0,1.08665 -0.21854,2.05317 -0.65617,2.89983 -0.43735,0.86096 -1.09352,1.53829 -1.9685,2.032 -0.87471,0.508 -1.93304,0.762 -3.175,0.762 -1.66502,0 -3.03371,-0.38787 -4.10633,-1.16416 -1.05833,-0.77602 -1.65788,-1.83436 -1.79917,-3.175 h 2.94217 c 0.15531,0.53631 0.48683,0.95964 0.99483,1.27 0.52229,0.32464 1.15015,0.48683 1.88384,0.48683 0.86095,0 1.55945,-0.26088 2.0955,-0.78317 0.53631,-0.508 0.80433,-1.28402 0.80433,-2.32833 v -1.82033 c -0.381,0.55033 -0.91017,1.00912 -1.5875,1.37583 -0.66304,0.36698 -1.42504,0.55033 -2.286,0.55033 -0.98769,0 -1.89071,-0.254 -2.70933,-0.762 -0.81836,-0.508 -1.46738,-1.22052 -1.94734,-2.13778 -0.46566,-0.93133 -0.6985,-1.99673 -0.6985,-3.19616 0,-1.18534 0.23284,-2.23663 0.6985,-3.15384 0.47996,-0.91723 1.12184,-1.62279 1.92617,-2.11666 0.81862,-0.4939 1.72879,-0.74083 2.7305,-0.74083 z m 3.8735,6.05366 c 0,-0.71966 -0.14102,-1.3335 -0.42333,-1.8415 -0.28205,-0.52213 -0.66305,-0.91723 -1.143,-1.18533 -0.47969,-0.28223 -0.99484,-0.42333 -1.54517,-0.42333 -0.55033,0 -1.05833,0.13403 -1.524,0.40216 -0.46567,0.2681 -0.84667,0.66321 -1.143,1.18534 -0.28204,0.50799 -0.42333,1.11476 -0.42333,1.82033 0,0.70554 0.14129,1.32643 0.42333,1.86267 0.29633,0.5221 0.67733,0.92426 1.143,1.2065 0.47996,0.2822 0.98796,0.42333 1.524,0.42333 0.55033,0 1.06548,-0.13407 1.54517,-0.40217 0.47995,-0.28223 0.86095,-0.67733 1.143,-1.18533 0.28231,-0.52213 0.42333,-1.143 0.42333,-1.86267 z m 9.83694,-6.05366 c 0.87498,0 1.64386,0.17637 2.30717,0.52916 0.66331,0.33867 1.18533,0.78317 1.56633,1.3335 v -1.67216 h 2.9845 v 11.81094 c 0,1.08665 -0.21881,2.05317 -0.65616,2.89983 -0.43736,0.86096 -1.09352,1.53829 -1.9685,2.032 -0.87498,0.508 -1.93331,0.762 -3.175,0.762 -1.66502,0 -3.03398,-0.38787 -4.10634,-1.16416 -1.05833,-0.77602 -1.65814,-1.83436 -1.79916,-3.175 h 2.94216 c 0.15532,0.53631 0.48684,0.95964 0.99484,1.27 0.52202,0.32464 1.15014,0.48683 1.88383,0.48683 0.86069,0 1.55919,-0.26088 2.0955,-0.78317 0.53631,-0.508 0.80433,-1.28402 0.80433,-2.32833 v -1.82033 c -0.381,0.55033 -0.91016,1.00912 -1.5875,1.37583 -0.66331,0.36698 -1.42531,0.55033 -2.286,0.55033 -0.98768,0 -1.89097,-0.254 -2.70933,-0.762 -0.81835,-0.508 -1.46764,-1.22052 -1.94733,-2.13778 -0.46567,-0.93133 -0.6985,-1.99673 -0.6985,-3.19616 0,-1.18534 0.23283,-2.23663 0.6985,-3.15384 0.47969,-0.91723 1.12183,-1.62279 1.92616,-2.11666 0.81836,-0.4939 1.72853,-0.74083 2.7305,-0.74083 z m 3.8735,6.05366 c 0,-0.71966 -0.14102,-1.3335 -0.42333,-1.8415 -0.28231,-0.52213 -0.66331,-0.91723 -1.143,-1.18533 -0.47969,-0.28223 -0.99483,-0.42333 -1.54517,-0.42333 -0.55033,0 -1.05833,0.13403 -1.524,0.40216 -0.46566,0.2681 -0.84666,0.66321 -1.143,1.18534 -0.28231,0.50799 -0.42333,1.11476 -0.42333,1.82033 0,0.70554 0.14102,1.32643 0.42333,1.86267 0.29634,0.5221 0.67734,0.92426 1.143,1.2065 0.47969,0.2822 0.98769,0.42333 1.524,0.42333 0.55034,0 1.06548,-0.13407 1.54517,-0.40217 0.47969,-0.28223 0.86069,-0.67733 1.143,-1.18533 0.28231,-0.52213 0.42333,-1.143 0.42333,-1.86267 z m 16.14462,-0.254 c 0,0.42333 -0.0283,0.80434 -0.0847,1.143 h -8.5725 c 0.0706,0.84667 0.36698,1.50987 0.889,1.98967 0.52202,0.47977 1.16417,0.71966 1.92617,0.71966 1.10066,0 1.88383,-0.47273 2.3495,-1.41816 h 3.19616 c -0.33866,1.12887 -0.98769,2.06026 -1.94733,2.79394 -0.95965,0.71967 -2.13783,1.0795 -3.53483,1.0795 -1.12898,0 -2.14498,-0.24685 -3.048,-0.74083 -0.889,-0.508 -1.5875,-1.22052 -2.0955,-2.13778 -0.49398,-0.91723 -0.74084,-1.97556 -0.74084,-3.175 0,-1.21356 0.24686,-2.27896 0.74084,-3.19617 0.49397,-0.91723 1.18533,-1.62279 2.07433,-2.11666 0.889,-0.4939 1.91214,-0.74084 3.06917,-0.74084 1.11468,0 2.10952,0.23988 2.9845,0.71967 0.889,0.47977 1.57347,1.16417 2.05316,2.05317 0.49398,0.87487 0.74084,1.88383 0.74084,3.02683 z m -3.06917,-0.84666 c -0.014,-0.762 -0.28919,-1.3688 -0.8255,-1.82034 -0.53631,-0.46566 -1.19248,-0.6985 -1.9685,-0.6985 -0.73369,0 -1.35467,0.22577 -1.86267,0.67734 -0.49398,0.43743 -0.79719,1.05126 -0.91016,1.8415 z" fill="#0a0a0a" style="stroke-width:0.264583" /></g></svg>
