<svg xmlns="http://www.w3.org/2000/svg" viewBox="0 0 36.985 36.521"><g transform="translate(-30.681 -117.223)"><rect width="1.852" height="9.525" x="-5.559" y="138.831" fill="#0a0a0a" rx=".529" style="stroke-width:.264583" transform="rotate(-15)"/><rect width="1.852" height="15.875" x="-1.855" y="135.656" fill="#0a0a0a" rx=".529" style="stroke-width:.264583" transform="rotate(-15)"/><path fill="#fdc700" stroke="#0a0a0a" stroke-width="6" d="M36.309 125.295c-.427-1.595.502-3.208 2.043-3.62l13.29-3.562c1.54-.413 3.151.52 3.579 2.115l6.818 25.443c.427 1.596-.502 3.209-2.043 3.622l-13.29 3.56c-1.541.413-3.152-.519-3.58-2.114z" style="stroke-width:1.5875;stroke-dasharray:none"/><rect width="6.35" height="1.587" x="9.39" y="129.836" fill="#0a0a0a" rx=".794" style="stroke-width:.264583" transform="rotate(-15)"/><path fill="#0a0a0a" d="M49.358 131.847c1.068-.286 2.012-.165 2.832.363.827.515 1.403 1.377 1.727 2.587l1.429 5.333-2.78.745-1.329-4.956c-.163-.611-.448-1.043-.855-1.296-.407-.254-.878-.309-1.412-.165-.534.143-.914.426-1.14.848-.225.423-.256.94-.093 1.55l1.328 4.957-2.797.749-2.445-9.127 2.797-.75.324 1.211c.175-.48.472-.898.89-1.255a3.697 3.697 0 0 1 1.524-.794z" style="stroke-width:.264583"/><rect width="1.852" height="15.875" x="24.868" y="135.656" fill="#0a0a0a" rx=".529" style="stroke-width:.264583" transform="rotate(-15)"/><rect width="1.852" height="9.525" x="28.572" y="138.831" fill="#0a0a0a" rx=".529" style="stroke-width:.264583" transform="rotate(-15)"/></g></svg>
