<svg xmlns="http://www.w3.org/2000/svg" viewBox="0 0 36.98511 36.521079"><g transform="translate(-30.681236,-117.22276)"><rect x="-5.5590572" y="138.83142" width="1.8520833" height="9.5249996" rx="0.52916664" transform="rotate(-15)" fill="#0a0a0a" style="stroke-width:0.264583" /><rect x="-1.8549253" y="135.65642" width="1.8520833" height="15.875" rx="0.52916664" transform="rotate(-15)" fill="#0a0a0a" style="stroke-width:0.264583" /><path d="m 36.30904,125.29543 c -0.42749,-1.59538 0.50146,-3.20831 2.04274,-3.6213 l 13.28954,-3.56092 c 1.54125,-0.41298 3.15211,0.51935 3.57968,2.11477 l 6.81752,25.44328 c 0.42757,1.59544 -0.50139,3.20834 -2.04285,3.62135 l -13.28944,3.56076 c -1.54125,0.41302 -3.15224,-0.51937 -3.57973,-2.11481 z" fill="#fdc700" stroke="#0a0a0a" stroke-width="6" style="stroke-width:1.5875;stroke-dasharray:none" /><rect x="9.3897495" y="129.83559" width="6.3499999" height="1.5875" rx="0.79374999" transform="rotate(-15)" fill="#0a0a0a" style="stroke-width:0.264583" /><path d="m 49.35757,131.84686 c 1.06863,-0.28633 2.01263,-0.16528 2.83207,0.36312 0.82744,0.51458 1.4033,1.37705 1.72749,2.58743 l 1.42875,5.33215 -2.78045,0.74507 -1.32794,-4.95596 c -0.16362,-0.61066 -0.44884,-1.04262 -0.85564,-1.29591 -0.4068,-0.25331 -0.87736,-0.30837 -1.41166,-0.1652 -0.5343,0.14316 -0.91426,0.42614 -1.13993,0.84889 -0.22563,0.42275 -0.25664,0.93945 -0.093,1.55011 l 1.32795,4.95602 -2.79694,0.7493 -2.44554,-9.12675 2.79693,-0.74946 0.32433,1.21039 c 0.17539,-0.47943 0.47231,-0.89792 0.89075,-1.25548 0.4155,-0.36843 0.92313,-0.63301 1.52286,-0.79372 z" fill="#0a0a0a" style="stroke-width:0.264583" /><rect x="24.867899" y="135.65642" width="1.8520833" height="15.875" rx="0.52916664" transform="rotate(-15)" fill="#0a0a0a" style="stroke-width:0.264583" /><rect x="28.572138" y="138.83141" width="1.8520833" height="9.5249996" rx="0.52916664" transform="rotate(-15)" fill="#0a0a0a" style="stroke-width:0.264583" /></g></svg>
