<svg xmlns="http://www.w3.org/2000/svg" viewBox="0 0 36.474038 36.419195"><g transform="translate(-35.414178,-130.26145)"><rect x="-4.3311338" y="152.53543" width="1.8520833" height="9.5249996" rx="0.52916664" transform="rotate(-15)" fill="#fdc700" style="stroke-width:0.264583" /><rect x="-0.62699944" y="149.36043" width="1.8520833" height="15.875" rx="0.52916664" transform="rotate(-15)" fill="#fdc700" style="stroke-width:0.264583" /><path d="m 41.297543,138.14621 c -0.397325,-1.48281 0.443309,-2.91883 1.766225,-3.27329 L 56.021049,131.401 c 1.322917,-0.35446 2.768838,0.46887 3.166242,1.95167 l 6.817519,25.4431 c 0.397404,1.48299 -0.443442,2.91889 -1.766358,3.27343 l -12.957175,3.47186 c -1.322917,0.35454 -2.768918,-0.46884 -3.166243,-1.95157 z" fill="#fdc700" stroke="#fdc700" stroke-width="8" style="stroke-width:2.11667;stroke-dasharray:none" /><rect x="10.352999" y="142.48129" width="6.3499999" height="1.5875" rx="0.79374999" transform="rotate(-15)" fill="#0a0a0a" style="stroke-width:0.264583" /><path d="m 53.83485,144.83458 c 1.068625,-0.28633 2.012659,-0.16528 2.832073,0.36312 0.827432,0.51459 1.403297,1.37705 1.727624,2.58741 l 1.428803,5.33218 -2.780639,0.74506 -1.327944,-4.95599 c -0.163618,-0.61063 -0.448839,-1.04259 -0.855636,-1.2959 -0.406797,-0.25329 -0.877332,-0.30837 -1.411658,-0.16518 -0.534299,0.14317 -0.914267,0.42611 -1.13993,0.84889 -0.225637,0.42275 -0.256646,0.93946 -0.09303,1.55009 l 1.327944,4.95604 -2.796937,0.7493 -2.445517,-9.12678 2.796937,-0.74943 0.324299,1.21036 c 0.175419,-0.47942 0.472334,-0.89789 0.890747,-1.25544 0.415501,-0.36846 0.923131,-0.63302 1.522862,-0.79373 z" fill="#0a0a0a" style="stroke-width:0.264583" /><rect x="25.566738" y="149.36041" width="1.8520833" height="15.875" rx="0.52916664" transform="rotate(-15)" fill="#fdc700" style="stroke-width:0.264583" /><rect x="29.27096" y="152.53542" width="1.8520833" height="9.5249996" rx="0.52916664" transform="rotate(-15)" fill="#fdc700" style="stroke-width:0.264583" /></g></svg>
