<svg xmlns="http://www.w3.org/2000/svg" viewBox="0 0 36.474 36.419"><g transform="translate(-35.414 -130.261)"><rect width="1.852" height="9.525" x="-4.331" y="152.535" fill="#fdc700" rx=".529" style="stroke-width:.264583" transform="rotate(-15)"/><rect width="1.852" height="15.875" x="-.627" y="149.36" fill="#fdc700" rx=".529" style="stroke-width:.264583" transform="rotate(-15)"/><path fill="#fdc700" stroke="#fdc700" stroke-width="8" d="M41.298 138.146c-.398-1.483.443-2.919 1.766-3.273L56.02 131.4c1.323-.354 2.769.469 3.166 1.952l6.818 25.443c.397 1.483-.444 2.919-1.767 3.273l-12.957 3.472c-1.323.355-2.769-.469-3.166-1.952z" style="stroke-width:2.11667;stroke-dasharray:none"/><rect width="6.35" height="1.587" x="10.353" y="142.481" fill="#0a0a0a" rx=".794" style="stroke-width:.264583" transform="rotate(-15)"/><path fill="#0a0a0a" d="M53.835 144.835c1.068-.287 2.013-.166 2.832.363.827.514 1.403 1.377 1.728 2.587l1.428 5.332-2.78.745-1.328-4.956c-.164-.61-.45-1.042-.856-1.296-.407-.253-.877-.308-1.412-.165-.534.143-.914.426-1.14.85-.225.422-.256.939-.092 1.55l1.327 4.955-2.796.75-2.446-9.127 2.797-.75.324 1.21c.176-.479.473-.897.891-1.255a3.697 3.697 0 0 1 1.523-.793z" style="stroke-width:.264583"/><rect width="1.852" height="15.875" x="25.567" y="149.36" fill="#fdc700" rx=".529" style="stroke-width:.264583" transform="rotate(-15)"/><rect width="1.852" height="9.525" x="29.271" y="152.535" fill="#fdc700" rx=".529" style="stroke-width:.264583" transform="rotate(-15)"/></g></svg>
